<svg id="visual" viewBox="0 0 400 440" width="400" height="440" xmlns="http://www.w3.org/2000/svg" xmlns:xlink="http://www.w3.org/1999/xlink" version="1.1"><path d="M0 45L22 41L44 45L67 58L89 63L111 49L133 32L156 67L178 76L200 67L222 58L244 41L267 41L289 63L311 76L333 49L356 45L378 63L400 32L400 0L378 0L356 0L333 0L311 0L289 0L267 0L244 0L222 0L200 0L178 0L156 0L133 0L111 0L89 0L67 0L44 0L22 0L0 0Z" fill="#5476e8"></path><path d="M0 208L22 146L44 133L67 159L89 164L111 173L133 146L156 186L178 164L200 155L222 151L244 168L267 168L289 159L311 159L333 151L356 120L378 177L400 159L400 30L378 61L356 43L333 47L311 74L289 61L267 39L244 39L222 56L200 65L178 74L156 65L133 30L111 47L89 61L67 56L44 43L22 39L0 43Z" fill="#4a6ee9"></path><path d="M0 234L22 177L44 164L67 199L89 199L111 221L133 195L156 212L178 203L200 212L222 181L244 221L267 208L289 195L311 186L333 199L356 168L378 234L400 208L400 157L378 175L356 118L333 149L311 157L289 157L267 166L244 166L222 149L200 153L178 162L156 184L133 144L111 171L89 162L67 157L44 131L22 144L0 206Z" fill="#3f65ea"></path><path d="M0 309L22 256L44 234L67 252L89 269L111 261L133 243L156 305L178 278L200 296L222 256L244 278L267 291L289 283L311 256L333 243L356 252L378 305L400 300L400 206L378 232L356 166L333 197L311 184L289 193L267 206L244 219L222 179L200 210L178 201L156 210L133 193L111 219L89 197L67 197L44 162L22 175L0 232Z" fill="#345cea"></path><path d="M0 379L22 366L44 371L67 357L89 349L111 384L133 366L156 379L178 384L200 379L222 353L244 379L267 366L289 366L311 379L333 366L356 357L378 375L400 357L400 298L378 303L356 250L333 241L311 254L289 281L267 289L244 276L222 254L200 294L178 276L156 303L133 241L111 259L89 267L67 250L44 232L22 254L0 307Z" fill="#2953ea"></path><path d="M0 406L22 388L44 401L67 401L89 393L111 419L133 401L156 406L178 410L200 419L222 397L244 401L267 397L289 406L311 415L333 406L356 388L378 410L400 388L400 355L378 373L356 355L333 364L311 377L289 364L267 364L244 377L222 351L200 377L178 382L156 377L133 364L111 382L89 347L67 355L44 369L22 364L0 377Z" fill="#1c49e9"></path><path d="M0 441L22 441L44 441L67 441L89 441L111 441L133 441L156 441L178 441L200 441L222 441L244 441L267 441L289 441L311 441L333 441L356 441L378 441L400 441L400 386L378 408L356 386L333 404L311 413L289 404L267 395L244 399L222 395L200 417L178 408L156 404L133 399L111 417L89 391L67 399L44 399L22 386L0 404Z" fill="#0c3fe8"></path></svg>