<svg id="visual" viewBox="0 0 400 440" width="400" height="440" xmlns="http://www.w3.org/2000/svg" xmlns:xlink="http://www.w3.org/1999/xlink" version="1.1"><g><g transform="translate(266 344)"><path d="M0 -40.8L35.3 -20.4L35.3 20.4L0 40.8L-35.3 20.4L-35.3 -20.4Z" fill="none" stroke="#0c3fe8" stroke-width="4"></path></g><g transform="translate(16 241)"><path d="M0 -38L32.9 -19L32.9 19L0 38L-32.9 19L-32.9 -19Z" fill="none" stroke="#0c3fe8" stroke-width="4"></path></g><g transform="translate(213 157)"><path d="M0 -36L31.2 -18L31.2 18L0 36L-31.2 18L-31.2 -18Z" fill="none" stroke="#0c3fe8" stroke-width="4"></path></g><g transform="translate(388 305)"><path d="M0 -29L25.1 -14.5L25.1 14.5L0 29L-25.1 14.5L-25.1 -14.5Z" stroke="#0c3fe8" fill="none" stroke-width="4"></path></g><g transform="translate(44 21)"><path d="M0 -7L6.1 -3.5L6.1 3.5L0 7L-6.1 3.5L-6.1 -3.5Z" stroke="#0c3fe8" fill="none" stroke-width="4"></path></g><g transform="translate(161 364)"><path d="M0 -33L28.6 -16.5L28.6 16.5L0 33L-28.6 16.5L-28.6 -16.5Z" stroke="#0c3fe8" fill="none" stroke-width="4"></path></g><g transform="translate(270 61)"><path d="M0 -34L29.4 -17L29.4 17L0 34L-29.4 17L-29.4 -17Z" stroke="#0c3fe8" fill="none" stroke-width="4"></path></g><g transform="translate(321 432)"><path d="M0 -13L11.3 -6.5L11.3 6.5L0 13L-11.3 6.5L-11.3 -6.5Z" stroke="#0c3fe8" fill="none" stroke-width="4"></path></g><g transform="translate(384 175)"><path d="M0 -27L23.4 -13.5L23.4 13.5L0 27L-23.4 13.5L-23.4 -13.5Z" stroke="#0c3fe8" fill="none" stroke-width="4"></path></g><g transform="translate(107 126)"><path d="M0 -38L32.9 -19L32.9 19L0 38L-32.9 19L-32.9 -19Z" stroke="#0c3fe8" fill="none" stroke-width="4"></path></g><g transform="translate(10 363)"><path d="M0 -29L25.1 -14.5L25.1 14.5L0 29L-25.1 14.5L-25.1 -14.5Z" stroke="#0c3fe8" fill="none" stroke-width="4"></path></g><g transform="translate(361 54)"><path d="M0 -19L16.5 -9.5L16.5 9.5L0 19L-16.5 9.5L-16.5 -9.5Z" stroke="#0c3fe8" fill="none" stroke-width="4"></path></g><g transform="translate(143 245)"><path d="M0 -27L23.4 -13.5L23.4 13.5L0 27L-23.4 13.5L-23.4 -13.5Z" stroke="#0c3fe8" fill="none" stroke-width="4"></path></g><g transform="translate(270 221)"><path d="M0 -10L8.7 -5L8.7 5L0 10L-8.7 5L-8.7 -5Z" stroke="#0c3fe8" fill="none" stroke-width="4"></path></g><g transform="translate(77 422)"><path d="M0 -31L26.8 -15.5L26.8 15.5L0 31L-26.8 15.5L-26.8 -15.5Z" stroke="#0c3fe8" fill="none" stroke-width="4"></path></g><g transform="translate(171 40)"><path d="M0 -31L26.8 -15.5L26.8 15.5L0 31L-26.8 15.5L-26.8 -15.5Z" stroke="#0c3fe8" fill="none" stroke-width="4"></path></g><g transform="translate(229 416)"><path d="M0 -18L15.6 -9L15.6 9L0 18L-15.6 9L-15.6 -9Z" stroke="#0c3fe8" fill="none" stroke-width="4"></path></g><g transform="translate(6 114)"><path d="M0 -34L29.4 -17L29.4 17L0 34L-29.4 17L-29.4 -17Z" stroke="#0c3fe8" fill="none" stroke-width="4"></path></g><g transform="translate(77 311)"><path d="M0 -7L6.1 -3.5L6.1 3.5L0 7L-6.1 3.5L-6.1 -3.5Z" stroke="#0c3fe8" fill="none" stroke-width="4"></path></g><g transform="translate(393 389)"><path d="M0 -23L19.9 -11.5L19.9 11.5L0 23L-19.9 11.5L-19.9 -11.5Z" stroke="#0c3fe8" fill="none" stroke-width="4"></path></g><g transform="translate(309 137)"><path d="M0 -24L20.8 -12L20.8 12L0 24L-20.8 12L-20.8 -12Z" stroke="#0c3fe8" fill="none" stroke-width="4"></path></g></g></svg>